<?xml version="1.0" encoding="utf-8"?>
<!-- Generator: Adobe Illustrator 19.0.1, SVG Export Plug-In . SVG Version: 6.00 Build 0)  -->
<svg version="1.1" id="accuracy" xmlns="http://www.w3.org/2000/svg" xmlns:xlink="http://www.w3.org/1999/xlink" x="0px" y="0px"
	 viewBox="0 0 500 500" style="enable-background:new 0 0 500 500;" xml:space="preserve">
<g>
	<path d="M417.6,84.9c-44.1-44.1-102.8-68.4-165.3-68.4c-62.4,0-121.1,24.3-165.3,68.4c-44.1,44.1-68.4,102.8-68.4,165.3
		c0,62.4,24.3,121.1,68.4,165.3c44.1,44.1,102.8,68.4,165.3,68.4c62.4,0,121.1-24.3,165.3-68.4c44.1-44.1,68.4-102.8,68.4-165.3
		C486,187.8,461.7,129.1,417.6,84.9z M252.3,453.9c-112.3,0-203.7-91.4-203.7-203.7c0-112.3,91.4-203.7,203.7-203.7
		S456,137.9,456,250.2C456,362.5,364.6,453.9,252.3,453.9z"/>
	<path d="M267.3,161v-32.7h-30V161c-37.9,6.4-67.9,36.3-74.2,74.2h-31.3v30H163c6.4,37.9,36.3,67.9,74.2,74.2v33h30v-33
		c37.9-6.4,67.9-36.3,74.2-74.2h31.5v-30h-31.5C335.2,197.3,305.2,167.3,267.3,161z M267.3,308.8v-11.1h-30v11.1
		c-21.3-5.5-38.2-22.3-43.6-43.6h12.8v-30h-12.8c5.5-21.3,22.3-38.2,43.6-43.6V203h30v-11.4c21.3,5.5,38.2,22.3,43.6,43.6h-12.5v30
		h12.5C305.5,286.5,288.6,303.4,267.3,308.8z"/>
</g>
</svg>
