<svg version="1.1" id="leica_x5F_svg" xmlns="http://www.w3.org/2000/svg" xmlns:xlink="http://www.w3.org/1999/xlink" x="0px"
	 y="0px" viewBox="0 0 560 731" style="enable-background:new 0 0 560 731;" xml:space="preserve">
	 <style>
	 	.st0 {
	 		fill: none;
	 		stroke: #b71c1c;
	 		stroke-width: 5;
	 		stroke-miterlimit: 10;
	 	}
	 </style>
	<path class="st0" d="M44.8,52.6C44.8,52.6,44.7,52.6,44.8,52.6"/>
	<path class="st0" d="M46.3,362.2c-6.5,1.6-11.3,4.9-15.1,9.3c0.8,21.1,0.4,41-1.9,58.9c-3.7,9-8.3,16.5-13.7,22.6
		c-2.8,1-3.6-6.9-3.8-17.2c4.4-5.6,7.9-14.2,8.2-14.7c1.4-4.1,1.9-42.6,2-67.2c3.9-5.8,3.1-36.8,0-45.2c3.3-16.3,3.7-32.9,0.3-49.7
		c3.5-15.4,2.7-33-1-52.3c3.4-10.1,2.8-32.9-0.2-42.1c-0.5-13.3-0.2-22.9-0.2-23.1c-1.7-3.5-5-6.2-9.2-8.6v-19.5l8.4-8.9
		C33.2,93.1,41.5,120,44,135.6L46.3,362.2z"/>
	<path class="st0" d="M213.4,331.1c42.8,1,88.5,1.3,136.7,1"/>
	<polyline class="st0" points="208.9,314.4 208.9,281.5 354.2,281.5 353.7,314.1 "/>
	<path class="st0" d="M199.9,257.1c52.6,2.9,107.3,3,163.9,0.2"/>
	<line class="st0" x1="198.8" y1="169.2" x2="366.3" y2="169.2"/>
	<path class="st0" d="M298.9,194.4c7.4-7.9,13.1-9.3,21.6-9.3c15.4,0,27.9,11.7,27.9,27.1c0,15.4-12.5,27.9-27.9,27.9
		c-9.5,0-16.1-3.1-22.1-8.3h-41.2v-37.5L298.9,194.4z"/>
	<path class="st0" d="M211.2,113.1c0.7,8.2,0,17.2-2.2,25.2v30.9"/>
	<path class="st0" d="M352.3,114.1c0.6,8.7,1.3,17.6,2,22.9v32.2"/>
	<circle class="st0" cx="91.7" cy="166" r="9.2"/>
	<circle class="st0" cx="92" cy="433.4" r="10.8"/>
	<circle class="st0" cx="472.4" cy="433.4" r="10.8"/>
	<circle class="st0" cx="472.4" cy="164.7" r="9.2"/>
	<ellipse class="st0" cx="282.5" cy="508.6" rx="28.2" ry="6.7"/>
	<path class="st0" d="M482,41.6l22.9-0.4c10.2-0.7,16.5,4.3,19.6,12.1"/>
	<path class="st0" d="M516.3,361.7c6.5,2.3,12.3,5.4,16.9,10.2c-1.7,37-1,70.5,15.6,80.9l3.3-3v-15.3c-12.7-6.1-9.9-44.6-10-80.5
		c-3.6-13.7-3.1-29,0-45.1c-3-16.8-3-33.5,0-50.2c-2.7-16.8-2.4-33.7,1-50.5c-3.3-15.6-3.4-30.9,0-45.9v-18.8c0-2.7,1.2-5.2,3.2-6.9
		l3.7-3.2c1.4-1.2,2.2-2.9,2.2-4.7v-15.7c0-1.1-0.4-2.1-1.2-2.9l-7.9-7.8c-14-6-19.2,10-22.5,31L516.3,361.7z"/>
	<path class="st0" d="M31.1,371.5c38.6-3,74.8-4.8,106.8-4.4v91.5c4.9,19.7,15.6,34.9,34.9,43.3c72.5,20.7,147,19.6,223.4-2.5
		c19.1-10.8,30.7-29.1,32.5-57l-2.4-77.9c42,1.4,82.7,2.9,106.7,7.3"/>
	<path class="st0" d="M15.5,453.1v69.1c175.5,4.8,353.7,4.7,534.7-0.3l-1.4-69.1"/>
	<path class="st0" d="M15.5,522.3l-5.7,2.2v13.4c5.1,8.9,12.6,15.1,21.3,20.1c-9.1,5.9-16.3,12.2-21.3,19c-0.4,6.1,0,12.5,1.3,19.2
		l5.4,4.2l2.9,87.2c8.4,9.8,55.2,14.2,91.5,20.1c116-33.7,229.8-36,340.8,0c37.3-5,90.5-7.2,94.1-19.3l3.6-86.4l4.1-6.1
		c1-6.7,1.1-13.1,0-19.3c-5.6-7.9-12.1-14.7-20.4-19.1c7.4-4.9,13.7-11.4,19-19.4l1.4-12.4l-3.3-3.8"/>
	<path class="st0" d="M110.9,707.7c117.6-2.5,231.5-2.6,340.8,0"/>
	<path class="st0" d="M400.4,706.7c6.9,5.9,3,9.1-5.7,11.1c-75.8,8-151.6,6.9-227.3-2.7c-5.7-1.1-9.9-2.9-5.4-8.3"/>
	<path class="st0" d="M133.9,707.3c1.7,4.9-3.2,7.6-13.1,8.6c-36-2.3-71.5-4.9-77.3-18.8"/>
	<path class="st0" d="M520.8,699.1c-10.2,14.7-45.5,15.8-79.5,17.6c-7.1,0.7-10.9-2.3-11-9.6"/>
	<circle class="st0" cx="320.5" cy="212.6" r="15.6"/>
	<path class="st0" d="M46.3,362.2l107.3-4.6l1.5,95.6c4.4,14.8,11.4,27.1,24.9,33.1c60.4,15.6,123.6,17.6,189.9,4.8
		c23.2-5,34.8-18.6,39.2-37.6l0-95.8l2.9-312.7l-43.5,4.1c-2.2,0.2-4.2,1.6-5.1,3.6l-9.6,20.9c-1.4,2.7-2.2,5.8-2.1,8.9l0.8,31.7
		c0,0.5,0.6,0.6,0.8,0.2l8.6-18.9c1-1.7,3.5-1,3.6,0.9l1,72.9l-3.7,131.7c-0.1,3.4-1.6,6.6-4.1,8.8c-2.3,2.1-4.5,4-6.4,5.8
		c-1.3,1.2-2,2.8-2,4.6l0,11.9c14.3-1,13.2,13.4,14.3,25.6l1.9,70.9c-0.8,11.9-7.5,20.8-19.1,27.1c-45.1,14.1-88.5,16-129.4,0
		c-6.3-3.6-18.3-10-20.4-25.3c0.3-19.6-1.9-29.4,3.3-82.7c2.7-22,10.1-15.2,12.6-16.6l0-8.9c0-2.1-0.8-4-2.2-5.5
		c-2.8-2.9-5.5-5.7-8.1-8.3c-1.5-1.6-2.4-3.7-2.4-5.8l-1.9-130.4l0.6-76.3c0-1,1.4-1.3,1.8-0.4l9.6,17.9c0.1,0.2,0.4,0.1,0.4-0.1
		l0.6-33.5c0-1.9-0.3-3.8-1-5.5c-3.4-8.6-6.8-16.9-9.7-21.2c-1.2-1.8-3.1-2.9-5.2-3.1c-13.9-1.1-28.2-2.2-42.8-3.3
		C97.5,41.3,42.7,36.9,21.4,75l-1.3,29.6"/>
	<line class="st0" x1="153.6" y1="357.6" x2="153" y2="46.5"/>
	<path class="st0" d="M40.6,55.2C42,48.5,45.4,44,51.8,43.1l1.3-32.3C53.2,8.6,55,6.9,57.2,7l39.3,1.4c2.5,0.1,4.4,2.1,4.5,4.6
		l0.6,30.1"/>
	<path class="st0" d="M516.3,361.7c-32.4-4.6-68.7-5.4-107.2-4"/>
	<path class="st0" d="M411.9,44.9c60.2-7.3,113.8-7.8,130.6,28.7c0.5,9.2,0.6,18.8,0.5,28.8"/>
	<path class="st0" d="M552.1,538.2c-178.3,8.3-359.2,7.9-542.2-0.3"/>
	<path class="st0" d="M533.1,557.6c-168.9,13.4-336.2,13.3-502,0.3"/>
	<path class="st0" d="M9.9,577c2.6,6.1,14.6,7.1,27,7.9c161.9,10.5,327.4,10.3,496.3,0c10.5-0.5,18.6-2.4,20.4-8.1"/>
	<path class="st0" d="M16.5,600.4c176.3,18.7,353.9,19.2,532.8,1.7"/>
</svg>
